Streetdance (2010) 1080P MKV AC3+DTS Eng-NLSubs

[IMG]http://img401.imageshack.us/img401/8725/frontqg.jpg[/IMG]

PLOT

In order to win the Street Dance Championships, a dance crew is forced to 
work with ballet dancers from the Royal Dance School in exchange for rehearsal space.

 
http://www.youtube.com/watch?v=ZNw4aKZ0WvE

MM:     http://www.moviemeter.nl/film/65224

IMDB:     http://www.imdb.com/title/tt1447972/

INFO

Source.....: 1080P BluRay 
FRAME RATE.: 23.976Fps 
VIDEO CODEC: X264
AUDIO 1....: DTS
AUDIO 2....: AC3
RESOLUTION.: 1920x1080
RUNTIME....: 98 MINS 
GENERE.....: Drama
LANGUAGE...: English
SUBTITLES..: English & Dutch

Thanks To bradje

Enjoy This Nice release

PLAYER INFO


      Format : Matroska
      File size : 6.98 GiB
      Duration : 1h 38mn
      Overall bit rate : 10.2 Mbps
      Movie name : Streetdance 3D (2010) 1080P.X264.NL.SUBBED.Bradje
      Encoded date : UTC 2010-09-24 21:04:10
      Writing application : mkvmerge v3.3.0 ('Language') built on Mar 24 2010 14:59:24
      Writing library : libebml v0.8.0 + libmatroska v0.9.0
   Video #1
      ID : 1
      Format : AVC
      Format/Info : Advanced Video Codec
      Format profile : High@L4.0
      Format settings, CABAC : Yes
      Format settings, ReFrames : 4 frames
      Muxing mode : Container profile=Unknown@4.0
      Codec ID : V_MPEG4/ISO/AVC
      Duration : 1h 38mn
      Bit rate : 8 557 Kbps
      Nominal bit rate : 8 744 Kbps
      Width : 1 920 pixels
      Height : 1 080 pixels
      Display aspect ratio : 16:9
      Frame rate : 23.976 fps
      Resolution : 24 bits
      Colorimetry : 4:2:0
      Scan type : Progressive
      Bits/(Pixel*Frame) : 0.172
      Stream size : 5.88 GiB (84%)
      Title : x264
      Writing library : x264 core 105 r1724 b02df7b
      Encoding settings : cabac=1 / ref=4 / deblock=1:0:0 / analyse=0x3:0x113 / 
me=umh / subme=7 / psy=1 / psy_rd=1.00:0.00 / mixed_ref=1 / me_range=16 / chroma_me=1 / 
trellis=1 / 8x8dct=1 / cqm=0 / deadzone=21,11 / fast_pskip=0 / chroma_qp_offset=-2 / 
threads=12 / sliced_threads=0 / nr=0 / decimate=1 / interlaced=0 / constrained_intra=0 / 
bframes=3 / b_pyramid=2 / b_adapt=1 / b_bias=0 / direct=1 / weightb=1 / open_gop=0 / 
weightp=2 / keyint=250 / keyint_min=23 / scenecut=40 / intra_refresh=0 / rc_lookahead=40 / 
rc=2pass / mbtree=1 / bitrate=8744 / ratetol=1.0 / qcomp=0.60 / qpmin=10 / qpmax=51 / 
qpstep=4 / cplxblur=20.0 / qblur=0.5 / ip_ratio=1.40 / aq=1:1.00
      Language : English
   Audio #2
      ID : 2
      Format : AC-3
      Format/Info : Audio Coding 3
      Codec ID : A_AC3
      Duration : 1h 38mn
      Bit rate mode : Constant
      Bit rate : 640 Kbps
      Channel(s) : 6 channels
      Channel positions : Front: L C R, Surround: L R, LFE
      Sampling rate : 48.0 KHz
      Stream size : 451 MiB (6%)
      Title : AC3
      Language : English
   Audio #3
      ID : 3
      Format : DTS
      Format/Info : Digital Theater Systems
      Codec ID : A_DTS
      Duration : 1h 38mn
      Bit rate mode : Constant
      Bit rate : 755 Kbps
      Channel(s) : 6 channels
      Channel positions : Front: L C R, Surround: L R, LFE
      Sampling rate : 48.0 KHz
      Resolution : 24 bits
      Stream size : 531 MiB (7%)
      Title : DTS
      Language : English
   Text #4
      ID : 4
      Format : UTF-8
      Codec ID : S_TEXT/UTF8
      Codec ID/Info : UTF-8 Plain Text
      Title : Subtitles
      Language : Dutch
   Text #5
      ID : 5
      Format : UTF-8
      Codec ID : S_TEXT/UTF8
      Codec ID/Info : UTF-8 Plain Text
      Title : Subtitles
      Language : English
